<?xml version="1.0" ?><svg style="enable-background:new 0 0 512 512;" version="1.1" viewBox="0 0 512 512" xml:space="preserve" xmlns="http://www.w3.org/2000/svg" xmlns:xlink="http://www.w3.org/1999/xlink"><g id="outerdark"><path d="M256.5,20C126.4,20,21,125.4,21,255.5S126.4,491,256.5,491S492,385.6,492,255.5S386.6,20,256.5,20z    M256,460.5c-112.9,0-204.5-91.6-204.5-204.5S143.1,51.5,256,51.5S460.5,143.1,460.5,256S368.9,460.5,256,460.5z" style="fill:#3B5998;"/></g><g id="outerlight"><path d="M423.1,89l-22.4,22.4c37,37,59.8,88.1,59.8,144.6c0,112.9-91.6,204.5-204.5,204.5   c-56.4,0-107.6-22.9-144.6-59.8L90,422.1c92,92,241.1,92,333,0S515,181,423.1,89z" style="opacity:0.2;fill:#FFFFFF;"/></g><g id="innerdark"><circle cx="256" cy="256" r="180" style="fill:#3B5998;"/></g><g id="Facebook"><path d="M272.1,360.3v-95.1h31.9l4.8-37.1h-36.7v-23.7c0-10.7,3-18.1,18.4-18.1l19.6,0v-33.2   c-3.4-0.5-15.1-1.5-28.6-1.5c-28.3,0-47.7,17.3-47.7,49v27.3h-32v37.1h32v95.1H272.1z" id="f" style="fill:#E6E7E8;"/></g><g id="innerlight"><path d="M128.1,382.6c-70.3-70.3-70.3-184.3,0-254.6s184.3-70.3,254.6,0" style="opacity:0.2;fill:#FFFFFF;"/><g/><g/><g/><g/><g/><g/></g></svg>